#!OML:ASF X:\für Bonn\!DataBase\2005_08_11_Bastian_Final\c3d\Bastian.ASF
:FULLY-SPECIFIED
:DEGREES
31
root -1.36369 15.2473 1.78651 168.04 -2.84558 -173.7
lowerback 23.4948 -0.245222 1.26341
upperback 6.45681 -1.26198 1.33155
thorax -5.97361 -1.18928 1.13271
lowerneck -10.3385 -6.46788 -5.41501
upperneck -4.75546 -7.31369 13.0482
head 1.00525 -3.07283 4.50261
rclavicle 4.47266e-015 2.78299e-015
rhumerus 73.9559 16.8929 13.8146
rradius 39.829
rwrist -66.1136
rhand -49.4234 -7.35305
rfingers 7.12502
rthumb -22.0356 -36.1177
lclavicle 4.47266e-015 2.78299e-015
lhumerus 74.4269 -23.0855 -34.355
lradius 31.5798
lwrist 27.5392
lhand -44.4108 21.7584
lfingers 7.12502
lthumb -17.2166 51.0157
rfemur -18.2938 -7.01169 27.3787
rtibia 70.4737
rfoot -34.8566 -3.96458
rtoes -1.45802
lfemur -18.8257 3.08936 -12.0606
ltibia 73.0767
lfoot -33.1537 -8.76553
ltoes -9.92034
32
root -1.36169 15.0834 1.78839 167.848 -2.78611 -173.517
lowerback 23.8418 -0.267348 1.47562
upperback 6.49247 -1.25904 1.41572
thorax -6.11026 -1.2023 1.11248
lowerneck -10.3305 -6.46436 -5.28524
upperneck -5.00321 -7.28105 12.9476
head 0.918093 -3.05954 4.45716
rclavicle 2.98177e-015 -1.82882e-014
rhumerus 73.8914 16.4981 13.7163
rradius 39.796
rwrist -65.8964
rhand -49.3628 -7.70942
rfingers 7.12502
rthumb -21.9774 -36.4809
lclavicle 2.98177e-015 -1.82882e-014
lhumerus 74.0344 -22.7951 -33.6714
lradius 31.4096
lwrist 27.1009
lhand -44.1641 21.6614
lfingers 7.12502
lthumb -16.9791 50.9393
rfemur -19.1888 -7.37624 27.5112
rtibia 72.4904
rfoot -35.6033 -3.72815
rtoes -0.973271
lfemur -19.8016 3.08289 -11.8095
ltibia 75.3862
lfoot -33.758 -8.98257
ltoes -9.72663
33
root -1.36067 14.9167 1.78951 167.649 -2.70265 -173.341
lowerback 24.2041 -0.292043 1.67679
upperback 6.52469 -1.2607 1.50368
thorax -6.25746 -1.21816 1.10491
lowerneck -10.2829 -6.43876 -5.16291
upperneck -5.30048 -7.21228 12.8444
head 0.807155 -3.03019 4.41591
rclavicle -9.74045e-015 1.59028e-014
rhumerus 73.8848 16.1042 13.6866
rradius 39.7628
rwrist -65.6766
rhand -49.2436 -8.1217
rfingers 7.12502
rthumb -21.863 -36.9066
lclavicle -9.74045e-015 1.59028e-014
lhumerus 73.6335 -22.5243 -33.0233
lradius 31.2417
lwrist 26.7074
lhand -43.9196 21.5816
lfingers 7.12502
lthumb -16.7438 50.8795
rfemur -20.0749 -7.67754 27.6428
rtibia 74.5393
rfoot -36.3447 -3.4976
rtoes -0.502701
lfemur -20.8071 3.13693 -11.5444
ltibia 77.7689
lfoot -34.3398 -9.23778
ltoes -9.61139
34
root -1.35896 14.744 1.79141 167.5 -2.61416 -173.14
lowerback 24.5164 -0.317053 1.90829
upperback 6.54486 -1.25006 1.58753
thorax -6.39259 -1.22642 1.07086
lowerneck -10.2321 -6.42363 -5.00585
upperneck -5.59548 -7.16102 12.7337
head 0.696353 -3.0098 4.36579
rclavicle -8.94531e-016 -2.26615e-014
rhumerus 73.8381 15.7168 13.5734
rradius 39.6892
rwrist -65.3951
rhand -49.0181 -8.49239
rfingers 7.12502
rthumb -21.6464 -37.3024
lclavicle -8.94531e-016 -2.26615e-014
lhumerus 73.2354 -22.2239 -32.2824
lradius 31.0702
lwrist 26.2422
lhand -43.6735 21.5027
lfingers 7.12502
lthumb -16.5069 50.8206
rfemur -21.0358 -7.96987 27.8252
rtibia 76.6342
rfoot -37.0908 -3.28334
rtoes -0.200111
lfemur -21.9246 3.25586 -11.2293
ltibia 80.2205
lfoot -34.8858 -9.51286
ltoes -9.7159
35
root -1.3578 14.5646 1.79275 167.376 -2.54795 -172.96
lowerback 24.7917 -0.346335 2.12791
upperback 6.55939 -1.24418 1.66761
thorax -6.51484 -1.23572 1.03996
lowerneck -10.1005 -6.41573 -4.89412
upperneck -5.95427 -7.1092 12.6653
head 0.558014 -2.99156 4.33877
rclavicle -2.98177e-015 -1.82882e-014
rhumerus 73.7691 15.3562 13.2235
rradius 39.5254
rwrist -64.9217
rhand -48.6697 -8.70765
rfingers 7.12502
rthumb -21.3118 -37.5558
lclavicle -2.98177e-015 -1.82882e-014
lhumerus 72.8554 -21.9339 -31.5623
lradius 30.9247
lwrist 25.8488
lhand -43.4747 21.3957
lfingers 7.12502
lthumb -16.3155 50.7294
rfemur -22.0409 -8.24792 27.9902
rtibia 78.785
rfoot -37.8229 -3.1167
rtoes 0.237201
lfemur -23.0804 3.41322 -10.9356
ltibia 82.7238
lfoot -35.4432 -9.75886
ltoes -9.92997
36
root -1.35693 14.3801 1.79449 167.263 -2.46498 -172.782
lowerback 25.0618 -0.370543 2.35527
upperback 6.57068 -1.22842 1.73121
thorax -6.63799 -1.24001 0.983728
lowerneck -9.92635 -6.40833 -4.74939
upperneck -6.32939 -7.06023 12.5958
head 0.407178 -2.97705 4.30721
rclavicle -2.31584e-014 3.18055e-015
rhumerus 73.6776 15.016 12.7704
rradius 39.3326
rwrist -64.33
rhand -48.3033 -8.8972
rfingers 7.12502
rthumb -20.9599 -37.7847
lclavicle -2.31584e-014 3.18055e-015
lhumerus 72.5309 -21.6481 -31.0054
lradius 30.8405
lwrist 25.6078
lhand -43.4045 21.4236
lfingers 7.12502
lthumb -16.2478 50.7628
rfemur -23.0717 -8.49057 28.1657
rtibia 80.9807
rfoot -38.5369 -2.93884
rtoes 0.706265
lfemur -24.2686 3.61238 -10.6264
ltibia 85.2672
lfoot -35.9847 -10.0431
ltoes -10.1173
37
root -1.35671 14.1881 1.79692 167.189 -2.38794 -172.584
lowerback 25.3065 -0.403816 2.58883
upperback 6.57185 -1.21792 1.81859
thorax -6.75871 -1.24625 0.9511
lowerneck -9.67421 -6.39757 -4.72242
upperneck -6.72021 -7.01585 12.2622
head 0.221664 -2.9638 4.66104
rclavicle 1.64991e-014 -2.14687e-014
rhumerus 73.621 14.6893 12.2753
rradius 39.0898
rwrist -63.6828
rhand -47.9128 -8.94965
rfingers 7.12502
rthumb -20.5846 -37.8782
lclavicle 1.64991e-014 -2.14687e-014
lhumerus 72.2001 -21.3879 -30.4643
lradius 30.7754
lwrist 25.4972
lhand -43.4058 21.4725
lfingers 7.12502
lthumb -16.2491 50.8115
rfemur -24.1746 -8.71638 28.3844
rtibia 83.2364
rfoot -39.2131 -2.87203
rtoes 0.910297
lfemur -25.5346 3.83068 -10.2905
ltibia 87.858
lfoot -36.5257 -10.3359
ltoes -10.3702
38
root -1.35659 13.9897 1.7995 167.108 -2.32883 -172.4
lowerback 25.5497 -0.437711 2.84085
upperback 6.57837 -1.20452 1.87956
thorax -6.87305 -1.25147 0.877996
lowerneck -9.50885 -6.40899 -4.63738
upperneck -7.07572 -6.98684 12.247
head 0.068539 -2.95442 4.65001
rclavicle 1.61016e-014 -9.93923e-015
rhumerus 73.5316 14.3928 11.8215
rradius 38.8883
rwrist -63.1511
rhand -47.6085 -8.88235
rfingers 7.12502
rthumb -20.2922 -37.8423
lclavicle 1.61016e-014 -9.93923e-015
lhumerus 71.967 -21.1241 -30.1583
lradius 30.7792
lwrist 25.603
lhand -43.5372 21.5839
lfingers 7.12502
lthumb -16.3756 50.9126
rfemur -25.2868 -8.88094 28.6158
rtibia 85.5384
rfoot -39.7875 -2.93145
rtoes 0.959434
lfemur -26.7966 4.08657 -9.95518
ltibia 90.4685
lfoot -37.0755 -10.6499
ltoes -10.727
39
root -1.35651 13.7864 1.802 167.072 -2.24818 -172.223
lowerback 25.7643 -0.459948 3.05207
upperback 6.56872 -1.17971 1.96261
thorax -6.98988 -1.24942 0.848506
lowerneck -9.35429 -6.40624 -4.56514
upperneck -7.41569 -6.94117 12.2051
head -0.0795897 -2.93693 4.63277
rclavicle 2.04748e-014 5.96354e-015
rhumerus 73.4834 14.1154 11.4164
rradius 38.6948
rwrist -62.6616
rhand -47.3056 -8.73072
rfingers 7.12502
rthumb -20.001 -37.7213
lclavicle 2.04748e-014 5.96354e-015
lhumerus 71.7364 -20.8979 -29.9364
lradius 30.8462
lwrist 25.8513
lhand -43.737 21.7828
lfingers 7.12502
lthumb -16.568 51.0955
rfemur -26.4946 -8.98391 28.8692
rtibia 87.8956
rfoot -40.2832 -3.02798
rtoes 0.880624
lfemur -28.1004 4.39909 -9.61352
ltibia 93.0982
lfoot -37.569 -10.9908
ltoes -10.9703
